<svg width="50" height="50" viewBox="0 0 50 50" fill="none" xmlns="http://www.w3.org/2000/svg">
  <g id="logo">
    <path d="M19.0555 24.7346C19.0555 24.7346 19.6785 27.3864 23.1298 29.3586C25.3052 30.6011 29.8791 31.8904 32.2144 30.1647C34.8728 28.1992 35.4458 26.2537 35.5724 25.5375C35.699 24.8213 35.3192 22.8458 35.3192 22.8458L30.9451 21.29C30.9451 21.29 23.7128 23.0556 23.5862 23.0556C23.4629 23.059 19.0555 24.7346 19.0555 24.7346Z" fill="#E06767"/>
    <path d="M35.3326 26.3903C35.4292 26.1405 35.4891 25.9273 35.5325 25.7507C34.7596 25.5442 33.8634 25.211 33.0506 24.8646C33.1172 24.8346 33.1838 24.8046 33.2471 24.7713C33.6469 24.5681 34.04 24.3315 34.3232 23.9851C34.6297 23.612 34.7696 23.1289 34.7529 22.6459L30.9452 21.29C30.9452 21.29 23.7128 23.0556 23.5862 23.0556C23.4596 23.0556 19.0556 24.7313 19.0522 24.7346C18.9956 24.7546 19.462 25.734 19.492 25.784C19.9151 26.5735 20.8878 27.6729 21.5541 28.2692C21.5541 28.2692 21.2476 27.563 21.8273 27.2998C22.0838 27.1832 22.3936 27.2398 22.6568 27.3431C23.3164 27.6063 24.1426 28.619 26.208 29.705C27.6105 30.4446 29.053 31.0109 29.5194 30.9909C30.1423 30.9643 31.2717 30.6611 31.2717 30.6611C31.2717 30.6611 29.8325 30.5245 27.5206 29.4485C26.821 29.122 24.2325 27.8495 23.986 27.1399C23.916 26.94 23.6662 26.5869 24.1192 26.387C24.8122 26.0772 26.701 27.7062 28.3234 28.4524C30.2556 29.3386 32.361 30.0481 32.361 30.0481C32.5875 29.8749 32.8007 29.7017 33.0006 29.5285C31.9246 29.2519 30.8719 28.8722 29.8558 28.4291C28.8431 27.9894 27.8504 27.4197 26.9342 26.7934C26.3512 26.3936 25.9482 25.7207 26.5744 25.6341C27.6005 25.4909 28.9264 26.4669 30.2556 27.1565C31.4549 27.7795 32.894 28.066 34.2432 28.2359C34.4165 28.0193 34.6996 27.6063 34.6996 27.6063C34.6996 27.6063 34.1899 27.5196 32.6841 27.1865C32.0245 27.0399 31.3849 26.85 30.7986 26.5202C30.6454 26.4336 30.109 25.884 30.8419 25.6308C31.5748 25.3776 32.2711 25.8806 33.3771 26.1371C34.4864 26.4003 35.3226 26.4136 35.3326 26.3903Z" fill="#B05353"/>
    <path d="M37.8677 12.6085C37.8677 12.6085 37.7844 9.91012 36.3353 7.52154C35.086 5.46276 33.3038 5.25289 33.3038 5.25289C33.3038 5.25289 32.9506 3.95699 31.7114 2.96425C30.4721 1.9715 27.9236 1.142 27.9236 1.142C22.82 -1.15664 19.6386 0.725577 19.6386 0.725577C19.6386 0.725577 12.0697 -1.07335 6.01 4.06692C6.01 4.06692 2.95181 5.50607 1.70256 8.22445C1.01297 9.73022 1.30946 12.1854 1.30946 12.1854C-0.812615 14.6506 -0.229628 18.555 2.15229 20.5105C3.28828 21.4399 4.69078 22.0562 6.15324 22.2128C6.72624 22.2728 7.01606 22.1362 7.25592 22.7192C7.60905 23.5787 7.88555 24.4615 8.59513 25.0778C9.31803 25.7041 10.1609 26.1904 11.057 26.5236C12.796 27.1665 14.7615 27.2365 16.5171 26.6069C17.1001 26.397 18.969 26.377 18.969 26.377C18.969 26.377 19.9584 27.1932 23.4696 27.0633C26.9809 26.9333 28.4633 25.4176 29.2662 25.1344C29.8825 24.9179 30.6387 24.4415 31.3116 24.5647C31.6947 24.6347 32.0379 24.8312 32.3876 24.9978C33.3671 25.4675 34.4664 25.7241 35.5458 25.6241C39.6267 25.2477 40.0564 20.5471 39.6533 17.3157C39.2469 14.0543 37.8677 12.6085 37.8677 12.6085Z" fill="#FFB3B3"/>
    <path d="M7.72571 18.9881C7.64242 19.1779 6.80959 20.9969 6.11 21.29C4.90072 21.7997 3.0285 20.5871 2.31226 20.254C2.17234 20.1873 2.07906 20.3539 2.07906 20.3539C1.96247 20.5038 2.26562 20.8136 2.41886 20.9236C3.01184 21.35 4.43433 22.3161 5.49037 22.5793C6.85289 22.9191 7.87562 22.5793 7.87562 22.5793C7.87562 22.5793 8.24873 19.8509 8.27871 19.7276C8.30869 19.6044 8.27871 18.5183 8.27871 18.5183L7.72571 18.9881Z" fill="#EA6363"/>
    <path d="M19.6285 26.6868C19.6285 26.6868 18.9422 26.5802 17.8895 26.5969C16.8368 26.6135 15.3544 26.9167 15.3544 26.9167C15.3544 26.9167 16.4004 26.4403 16.8668 26.0239C17.3332 25.6041 17.4265 24.5847 17.3499 23.9784C17.2699 23.3588 17.06 23.0456 15.4743 22.7158L20.2248 22.4527C18.6324 23.512 18.3426 25.6941 19.6285 26.6868Z" fill="#F07371"/>
    <path d="M34.01 16.6628C33.1838 16.7727 32.3809 16.6161 31.668 16.193C31.3582 16.0065 31.3249 15.5668 31.5981 15.3302C31.7813 15.1737 32.0445 15.1637 32.2477 15.2969C33.4003 16.0531 34.573 15.5568 35.1993 15.167C36.7983 14.1709 37.5912 12.4053 37.4846 10.5531C37.8044 11.1194 38.0376 11.7457 38.0942 12.392C38.2375 13.961 37.1081 15.1837 35.8455 15.9732C35.2426 16.353 34.6196 16.5828 34.01 16.6628Z" fill="#F07371"/>
    <path d="M37.5812 18.2252C37.2214 18.2252 36.8316 18.1486 36.4618 17.922C36.0821 17.6888 35.8689 17.3757 35.679 16.9892C35.5224 16.6728 35.3025 16.4762 34.8994 16.5062C34.6163 16.5295 34.3431 16.6894 34.0599 16.6494C34.4364 15.9832 35.0394 15.4502 35.7489 15.1603C36.0754 15.0271 36.4419 14.9438 36.775 15.0471C36.8116 15.2803 36.6551 15.4968 36.5651 15.7167C36.4085 16.1064 36.4718 16.5728 36.725 16.906C36.8982 17.1325 37.2281 17.3757 37.5312 17.3557C37.7311 17.3424 37.871 17.1725 38.0676 17.1558C38.6772 17.1125 38.8304 18.0053 38.2308 18.1452C38.0376 18.1919 37.8177 18.2252 37.5812 18.2252Z" fill="#F07371"/>
    <path d="M31.718 5.87252C31.4748 5.9025 31.2283 5.87585 31.1017 5.66264C30.9385 5.38614 31.0751 5.03968 31.3782 4.93308C32.2144 4.63992 33.1538 4.69322 33.97 5.01969C34.6829 5.30619 35.1127 5.79257 35.3958 6.12237C35.679 6.45217 35.8722 7.10512 35.8722 7.10512C35.1626 6.48882 34.7596 5.5194 31.718 5.87252Z" fill="#F07371"/>
    <path d="M28.5266 5.22957C27.807 5.19959 28.5066 5.22957 28.4999 5.22957C27.3606 5.22957 25.9981 4.83647 25.8149 3.53724C25.4851 1.17198 28.9763 2.09144 30.2556 2.268C30.2556 2.268 29.2462 1.23195 27.9236 1.142C27.3073 1.10203 26.671 1.11868 26.0714 1.27859C25.4118 1.45515 25.0786 1.95152 24.479 2.19804C24.0259 2.38126 23.5096 2.31131 23.0432 2.17139C22.6134 2.04147 21.2176 1.29191 21.1776 2.22469C21.1676 2.48121 21.3509 2.70107 21.6007 2.73772C22.6134 2.88097 24.0126 3.33403 24.5323 4.30012C24.7722 4.74319 24.8288 5.27954 24.6889 5.76259C24.6223 5.99911 24.5256 6.30227 24.7222 6.45218C24.8721 6.56878 25.102 6.49216 25.2386 6.3589C25.3751 6.22565 25.4618 6.04575 25.5983 5.9125C26.0248 5.49275 26.4112 5.79257 26.8643 5.95248C27.3873 6.13903 27.9403 6.22898 28.4966 6.22898C28.5099 6.22898 27.5205 6.13237 28.5333 6.22898C29.5427 6.32226 29.2428 5.25955 28.5266 5.22957Z" fill="#F07371"/>
    <path d="M12.5127 4.14355C11.9597 3.64385 11.6965 1.69834 13.2856 0.695599C13.2856 0.695599 12.4195 0.72558 11.6965 1.29191C11.0802 1.77496 10.957 2.61113 11.1036 3.49394C11.1402 3.72047 10.9637 3.92701 10.7338 3.91369C9.90761 3.87038 9.08477 4.02029 8.37519 4.34676C8.10535 4.47335 8.01207 4.81315 8.17198 5.06633C8.30856 5.27954 8.5784 5.35283 8.80827 5.24623C9.60446 4.87978 10.7638 4.68323 11.6932 4.91642C12.636 5.15295 13.2989 5.42612 14.0385 6.70869C14.1651 6.92523 14.4383 7.00185 14.6448 6.86193C14.8047 6.752 14.8713 6.54545 14.8047 6.36556C14.1717 4.61993 13.259 4.81648 12.5127 4.14355Z" fill="#F07371"/>
    <path d="M14.5749 10.1433C14.4949 9.87014 14.2151 9.72023 13.9519 9.80018C13.1524 10.04 11.9964 9.97008 11.4801 9.45039C10.7905 7.85467 10.2675 7.57151 9.43128 7.28834C9.09815 7.17508 8.76501 7.46157 8.79833 7.80804C8.81832 8.00459 8.94824 8.17115 9.13813 8.22779C9.73111 8.40435 10.3274 9.20054 10.6339 10.0134C10.9137 10.7496 10.9471 11.719 10.3141 12.412C10.1509 12.5919 10.1175 12.8517 10.2608 13.0483L10.2675 13.0582C10.4507 13.3114 10.8171 13.3314 11.0303 13.1016C11.2569 12.855 11.4934 12.5352 11.5933 12.2121C11.6966 11.869 11.6666 11.5625 11.9631 11.2893C12.2929 10.9828 12.6061 11.0461 13.0025 11.0461C13.4089 11.0461 13.8453 10.8995 14.2284 10.7629C14.4883 10.6797 14.6548 10.4032 14.5749 10.1433Z" fill="#F07371"/>
    <path d="M4.36093 14.6606C4.24766 14.6606 4.13773 14.6573 4.02113 14.6473C2.47871 14.5141 1.66919 13.4047 1.30275 12.1888C0.936297 10.9728 1.24611 9.65028 1.24611 9.65028C1.7125 13.2481 3.58805 13.6046 4.10775 13.6512C5.09049 13.7378 6.02994 13.3114 6.28645 12.6618C6.69288 11.6358 5.44695 10.6297 4.83731 10.0067C4.43422 9.59364 4.28431 8.89073 4.39091 8.33439C4.44421 8.0479 4.5708 7.76806 4.80733 7.58484C5.04052 7.40494 5.62684 7.24171 5.54689 7.75474C5.52357 7.91464 5.4203 8.04789 5.357 8.19447C4.90061 9.23386 6.52298 10.1966 6.96605 10.9662C7.32916 11.5891 7.48907 12.342 7.2159 13.0283C6.82946 14.0077 5.66016 14.6606 4.36093 14.6606Z" fill="#F07371"/>
    <path d="M4.00448 14.3941C4.27432 14.4274 4.55082 14.3808 4.79401 14.2609C5.02721 14.1476 5.23708 13.9677 5.4936 13.9477C5.61686 13.9411 5.7701 14.0144 5.75011 14.1343C5.74345 14.1776 6.02661 14.2575 5.98997 14.2809C5.32703 14.6939 3.64803 15.1037 4.80734 18.0786C4.90061 18.3151 4.82732 18.5816 4.61079 18.7116C4.3576 18.8648 4.02114 18.7649 3.90121 18.495C3.58473 17.7988 3.43149 17.0292 3.44148 16.263C3.45148 15.5168 3.5281 14.8638 3.02839 14.2409C2.97509 14.1776 2.91846 14.0876 2.96177 14.0177C2.98842 13.9744 3.04172 13.9577 3.09169 13.9444C3.29823 13.8911 3.5181 13.8345 3.72798 13.8778C3.82126 13.8978 4.86397 14.4741 4.87396 14.4541" fill="#F07371"/>
    <path d="M33.7235 19.2046C33.0339 19.1213 32.3244 19.1713 31.6714 19.4178C31.1184 19.6277 30.7053 20.0508 30.069 19.9108C29.6893 19.8276 29.3528 19.5844 29.1163 19.2746C28.6166 18.6249 28.6832 17.942 28.8697 17.2025C29.0563 16.4696 29.0363 15.6201 28.7065 14.9305C28.6199 14.7472 28.4733 14.584 28.2834 14.5174C28.0902 14.4508 27.8537 14.5074 27.7404 14.6773C27.6272 14.8505 27.6705 15.0804 27.7104 15.2836C27.8404 15.9066 28.0069 16.5795 27.8204 17.1891C27.6438 17.7688 27.4006 18.2885 26.9842 18.7349C26.1947 19.5844 25.0487 19.9741 24.0593 19.7243C23.3297 19.5411 22.7401 19.0314 22.3436 18.2518C22.2037 17.6422 22.0571 16.8493 21.3009 16.7627C21.1477 16.7461 20.9811 16.7694 20.8645 16.866C20.7479 16.9659 20.6946 17.1258 20.6946 17.2791C20.6946 17.6622 21.0611 17.9487 21.1277 18.3251C21.3376 19.4778 20.5713 20.797 19.4087 21.4366C18.5092 21.933 16.0407 22.2128 13.8287 20.3572C13.7354 20.2773 13.7354 20.124 13.6455 20.0408C13.5855 19.9875 13.5089 19.9541 13.4323 19.9408C13.1025 19.8775 12.7593 20.1907 12.7893 20.5238C12.816 20.827 13.0658 21.0602 13.289 21.2667C13.8687 21.8064 13.6088 22.0229 13.5089 22.3127C13.4856 22.386 13.4423 22.4527 13.4356 22.5293C13.4156 22.7425 13.7421 22.6725 13.9553 22.6559C14.1685 22.6392 14.3617 22.5226 14.5683 22.4627C14.8281 22.3894 16.0174 22.8258 16.2506 22.8757C16.9268 23.0223 17.16 23.089 17.743 23.089C18.4726 23.089 19.0922 23.4654 19.6252 22.9657C20.3848 22.2561 20.9744 21.7931 21.6474 21.5632C21.9805 21.4499 22.3803 21.3933 22.6601 21.6098C22.86 21.7631 22.9499 22.0196 23.0199 22.2594C23.1631 22.7525 23.2697 23.2555 23.4796 23.7252C23.6895 24.1916 24.0226 24.628 24.489 24.8379C24.6356 24.9045 24.8022 24.9478 24.9621 24.9112C25.122 24.8746 25.2619 24.738 25.2652 24.5781C25.2686 24.4681 25.2119 24.3682 25.152 24.2782C24.9221 23.9118 24.6489 23.572 24.4457 23.1922C24.2425 22.8125 24.1092 22.3694 24.1925 21.9463C24.3458 21.1634 25.2519 20.9436 25.9015 20.747C26.5245 20.5571 27.1474 20.2007 27.817 20.2373C28.2368 20.2606 29.1263 20.7503 29.3928 21.0768C29.4461 21.1434 29.4694 21.2267 29.4827 21.3133C29.596 22.0163 29.0796 22.6492 28.5899 23.1622C28.5033 23.2522 28.4134 23.3888 28.4866 23.492C28.5133 23.5287 28.5533 23.5487 28.5932 23.562C28.9464 23.6986 29.3595 23.5787 29.6593 23.3488C30.3189 22.8491 30.5488 21.9929 31.1117 21.4C31.5748 20.9169 32.1978 20.6004 32.8274 20.3939C35.0794 19.6543 35.196 21.4266 35.5991 22.4194C36.0022 23.4121 36.5985 22.7258 36.6052 22.4527C36.6285 21.1568 35.799 19.4511 33.7235 19.2046Z" fill="#F07371"/>
    <path d="M12.6326 24.4648C12.2895 24.4448 12.063 24.0884 12.2029 23.7719C12.4261 23.2655 12.8458 22.7625 13.3889 22.376C14.215 21.7897 15.0412 21.6831 15.8707 21.9196L16.0406 22.7658C15.5043 22.6126 14.5448 22.7825 13.9685 23.1922C13.5521 23.4887 13.2656 23.8518 13.1257 24.155C13.0357 24.3515 12.8458 24.4781 12.6326 24.4648Z" fill="#F07371"/>
    <path d="M34.2065 9.11059C34.1432 8.68751 33.8134 8.29441 33.387 8.28108C33.1772 8.27442 32.944 8.38436 32.8873 8.58757C32.8607 8.67751 32.874 8.77746 32.8773 8.87073C32.904 9.56366 32.3476 10.2333 31.6614 10.3299C30.8852 10.4398 30.3122 9.96009 29.7259 9.56032C29.1662 9.18055 28.4666 8.92403 27.8203 8.74081C26.098 8.25776 24.6156 8.58091 23.4862 10.0034C23.0665 10.5331 22.6667 11.1127 22.0771 11.4392C21.151 11.9522 19.1955 11.9889 18.6191 10.9828C17.8629 9.66693 17.8363 5.62266 20.2615 6.08239C21.0111 6.22564 21.5674 6.87525 21.6207 7.3583C21.654 7.66478 21.4641 7.93129 21.2209 8.13784C21.0344 8.29774 20.9944 8.56758 21.121 8.77412C21.2809 9.0373 21.6407 9.09393 21.8739 8.89738C22.5568 8.31107 22.6634 7.69477 22.6134 7.24836C22.4569 5.82588 20.8545 5.02302 19.5819 4.98638C19.3021 4.97638 18.9789 4.88643 18.8723 4.62326C18.8257 4.50999 18.8323 4.38673 18.8224 4.2668C18.7557 3.41731 17.8862 2.49452 17.2066 2.05478C16.9568 1.89155 16.6203 1.99815 16.4904 2.26466C16.3805 2.49452 16.4671 2.76436 16.6803 2.90428C17.3266 3.33069 17.7197 3.95032 17.8496 4.74985C17.9962 5.6693 17.7963 6.60874 17.4099 7.44491C17.2166 7.86466 16.9801 8.27109 16.7036 8.6442C16.4671 8.96734 16.1306 9.18388 15.9774 9.57032C15.9607 9.61363 15.9441 9.66026 15.9574 9.70357C15.9807 9.78686 16.084 9.81017 16.1706 9.81351C16.4171 9.8235 16.6636 9.7702 16.8835 9.66693C16.7569 10.1566 17.0834 10.633 17.3532 11.0594C17.6231 11.4858 17.8396 12.0655 17.5331 12.4686C17.5198 12.4853 17.5031 12.5019 17.4898 12.5219C16.8335 12.7984 16.2006 13.1748 15.7075 13.6945C14.858 14.594 14.2284 15.4035 12.9858 15.8033C11.8865 16.1597 10.6639 16.1164 9.59451 15.6867C9.38796 15.6034 9.17809 15.5068 8.95489 15.5135C8.73169 15.5201 8.49516 15.6767 8.4885 15.8999C8.48516 16.0132 8.5418 16.1164 8.59177 16.2197C9.1581 17.369 8.11872 18.1152 7.67565 19.1146C7.25923 20.0474 7.04602 21.0701 7.04602 22.0929C7.04602 23.2089 7.42913 24.0217 8.81164 25.4409C9.43793 26.0805 10.2574 26.4603 10.947 26.6835C11.1636 26.7534 11.3002 26.4569 11.1069 26.3337C9.68445 25.4276 9.46125 24.6247 9.02818 23.7985C7.98879 21.8097 9.12478 18.7782 11.0803 17.2391C11.8365 16.6461 12.9092 16.6928 13.822 17.0059C14.8014 17.3424 15.3811 18.0619 16.1173 18.7315C16.3172 18.9148 16.5737 19.1113 16.8302 19.0314C17.0634 18.9614 17.18 18.6849 17.1533 18.445C17.1267 18.2052 16.9901 17.992 16.8602 17.7888C16.7169 17.5656 16.5737 17.3424 16.4271 17.1192C16.2372 16.826 16.0407 16.5195 15.9807 16.1731C15.9141 15.7966 16.2472 14.4941 19.412 13.6879C19.9484 13.5513 20.4947 13.6112 21.0344 13.7645C21.7606 13.971 22.2803 14.5041 22.8899 14.9205C23.0598 15.0371 23.2464 15.1603 23.4529 15.167C23.7128 15.177 23.966 14.9804 24.0193 14.7239C24.0926 14.3708 23.826 14.0543 23.6495 13.7412C23.0632 12.7085 23.7461 11.3293 24.6089 10.6697C25.3818 10.0833 26.3979 9.86681 27.3606 9.96675C28.8264 10.1167 30.2722 11.0961 30.6087 12.5286C30.6853 12.8517 30.7786 13.2681 31.1084 13.3114C31.4748 13.3614 31.6714 12.8717 31.6347 12.5019C31.5981 12.1321 31.4782 11.7157 31.708 11.4226C31.8146 11.2893 31.9745 11.2127 32.1311 11.1427C32.5808 10.9462 33.0506 10.7829 33.4537 10.4998C33.8568 10.2199 34.1932 9.79019 34.2232 9.30048C34.2199 9.24384 34.2165 9.17722 34.2065 9.11059Z" fill="#EA6363"/>
    <path d="M16.1673 9.81018C16.4138 9.82017 16.6603 9.76687 16.8802 9.6636C16.7536 10.1533 17.0801 10.6297 17.3499 11.0561C17.5464 11.3692 17.8196 11.9256 17.5231 12.4952C17.5231 12.4952 17.9695 12.2454 18.6924 12.0355C19.4153 11.8256 20.1216 11.779 20.1216 11.779C19.6086 11.6724 18.849 11.3826 18.6158 10.9795C17.8596 9.6636 17.8329 5.61933 20.2582 6.07906C21.0077 6.22231 21.5641 6.87192 21.6174 7.35497C21.6507 7.66145 21.4608 7.92796 21.2176 8.1345C21.031 8.29441 20.9911 8.56425 21.1177 8.77079C21.2776 9.03397 21.6374 9.0906 21.8705 8.89405C22.5535 8.30774 22.6601 7.69144 22.6101 7.24503C22.4535 5.82255 20.8511 5.01969 19.5786 4.98304C19.2987 4.97305 18.9756 4.8831 18.869 4.61993C18.8224 4.50666 18.829 4.3834 18.819 4.26347C18.7524 3.41398 17.8829 2.49119 17.2033 2.05145C16.9535 1.88822 16.617 1.99482 16.4871 2.26133C16.3771 2.49119 16.4638 2.76103 16.677 2.90095C17.3232 3.32736 17.7163 3.94699 17.8463 4.74652C17.9928 5.66597 17.793 6.60541 17.4065 7.44158C17.2133 7.86133 16.9768 8.26776 16.7003 8.64087C16.4638 8.96401 16.1273 9.18055 15.974 9.56699C15.9574 9.61029 15.9407 9.65693 15.9541 9.70024C15.9774 9.78352 16.0807 9.80684 16.1673 9.81018Z" fill="#F07371"/>
  </g>
  <g id="themeSwitcher">
    <path d="M12.4822 0H14.2679V2.67857H12.4822V0Z" fill="black"/>
    <path d="M23.1965 11.6071H25.8751V13.3929H23.1965V11.6071Z" fill="black"/>
    <path d="M12.4822 22.3214H14.2679V25H12.4822V22.3214Z" fill="black"/>
    <path d="M0.875 11.6071H3.55357V13.3929H0.875V11.6071Z" fill="black"/>
    <path d="M3.95532 4.36028L5.21801 3.09759L7.11205 4.99163L5.84936 6.25432L3.95532 4.36028Z" fill="black"/>
    <path d="M19.6248 4.98295L21.5188 3.08891L22.7815 4.3516L20.8874 6.24564L19.6248 4.98295Z" fill="black"/>
    <path d="M19.6272 20.0147L20.8899 18.752L22.7839 20.646L21.5212 21.9087L19.6272 20.0147Z" fill="black"/>
    <path d="M3.97314 20.6518L5.866 18.75L7.12493 20.0179L5.23207 21.9107L3.97314 20.6518Z" fill="black"/>
    <path d="M13.375 5.35714C11.9623 5.35714 10.5813 5.77606 9.40668 6.56093C8.23204 7.3458 7.31652 8.46136 6.7759 9.76655C6.23527 11.0717 6.09382 12.5079 6.36943 13.8935C6.64504 15.2791 7.32533 16.5518 8.32427 17.5508C9.32322 18.5497 10.596 19.23 11.9815 19.5056C13.3671 19.7812 14.8033 19.6398 16.1085 19.0991C17.4137 18.5585 18.5292 17.643 19.3141 16.4684C20.099 15.2937 20.5179 13.9127 20.5179 12.5C20.5179 10.6056 19.7653 8.78878 18.4258 7.44924C17.0863 6.10969 15.2694 5.35714 13.375 5.35714ZM13.375 17.8571C11.9542 17.8571 10.5916 17.2927 9.58697 16.2881C8.58231 15.2834 8.01789 13.9208 8.01789 12.5C8.01789 11.0792 8.58231 9.71659 9.58697 8.71193C10.5916 7.70727 11.9542 7.14286 13.375 7.14286V17.8571Z" fill="black"/>
  </g>
</svg>
